<svg width="214" height="214" viewBox="0 0 214 214" fill="none" xmlns="http://www.w3.org/2000/svg">
<path fill-rule="evenodd" clip-rule="evenodd" d="M107 197.345L73.9353 214L56.4956 180.091L20.4353 173.13L25.2821 134.918L0 107L25.2821 79.0818L20.4353 40.8702L56.4956 33.9094L73.9353 0L107 16.6548L140.065 0L157.504 33.9094L193.565 40.8702L188.718 79.0818L214 107L188.718 134.918L193.565 173.13L157.504 180.091L140.065 214L107 197.345Z" fill="#FF846B"/>
<path d="M143.095 101.055C143.182 99.7763 143.214 98.5012 143.184 97.2342C142.931 86.8417 138.742 78.1931 131.387 72.8819C124.031 67.5707 114.504 66.3144 104.559 69.344C103.347 69.7133 102.147 70.1451 100.96 70.6302C100.421 79.7375 105.29 89.7519 114.436 96.3558C123.582 102.96 134.62 104.432 143.095 101.055Z" fill="white"/>
<path d="M148.418 133.154L135.442 123.784C137.054 121.215 138.429 118.554 139.552 115.839L157.024 113.135C159.008 112.828 160.347 110.974 160.014 108.994C159.682 107.014 157.803 105.657 155.819 105.964L147.023 107.325C143.758 108.784 140.142 109.686 136.276 109.97C128.447 110.546 120.398 108.52 113.264 104.23L84.7341 143.74C91.572 147.374 99.8525 147.959 108.446 145.341C109.953 144.882 111.443 144.331 112.909 143.695L115.867 161.293C116.033 162.283 116.586 163.117 117.346 163.665C118.105 164.213 119.071 164.476 120.063 164.322C122.047 164.015 123.386 162.161 123.053 160.181L119.668 140.04C123.9 137.275 127.809 133.762 131.213 129.641L144.189 139.011C145.827 140.194 148.102 139.842 149.27 138.225C150.438 136.607 150.056 134.337 148.418 133.154Z" fill="white"/>
<path d="M107.33 99.9459C101.014 94.5228 96.5593 87.52 94.6429 79.907C93.6969 76.1484 93.4155 72.4317 93.7729 68.8745L92.2979 60.0964C91.9651 58.1161 90.0865 56.7596 88.1022 57.0668C86.1178 57.3738 84.7789 59.2279 85.1117 61.2082L88.0419 78.6432C85.8182 80.5642 83.7244 82.7063 81.7929 85.0443L68.8169 75.6745C67.1784 74.4913 64.9033 74.8433 63.7355 76.4606C62.5676 78.0779 62.9492 80.3483 64.5877 81.5314L77.5637 90.9013C74.7229 95.4288 72.6172 100.245 71.3239 105.131L51.1408 108.253C49.1563 108.56 47.8175 110.415 48.1503 112.395C48.4829 114.375 50.3615 115.732 52.346 115.425L69.9812 112.696C69.8382 114.288 69.7838 115.876 69.8221 117.451C70.0399 126.432 73.2003 134.108 78.8008 139.456L107.33 99.9459Z" fill="white"/>
</svg>
