<svg version="1.2" xmlns="http://www.w3.org/2000/svg" viewBox="0 0 1080 1080" width="1080" height="1080"><style>tspan{white-space:pre}.a{fill:#9c84ef}</style><path class="a" d="m221.2 180h637.8l5 6v228.3c0 216.1-0.1 228.3-1.7 230.7-1 1.3-13.7 11.9-28.3 23.5-14.6 11.6-47.6 38-73.5 58.6-25.9 20.6-64.8 51.6-86.5 68.9-21.7 17.3-57.7 46-80 63.8-22.3 17.7-42.6 34-45.3 36.2-3.8 3.3-5.5 4-9 4-4.1 0-7-2.3-108.2-83.1-57.2-45.7-127.2-101.7-155.5-124.3-28.3-22.6-53.4-42.9-60.1-49.1l-0.1-457.3 2.7-3.1z"/></svg>