<svg version="1.2" xmlns="http://www.w3.org/2000/svg" viewBox="0 0 1080 1080" width="1080" height="1080"><style>tspan{white-space:pre}.a{fill:#f47b67}</style><path class="a" d="m544 180.5c25.1 0.2 33.2 0.6 45.5 2.4 8.3 1.2 21.1 3.5 28.5 5.2 7.4 1.7 17.3 4.2 22 5.6 4.7 1.4 12.3 3.8 17 5.3 4.7 1.5 13.7 4.9 20 7.4 6.3 2.6 17.6 7.9 25 11.6 7.4 3.8 18.5 9.9 24.5 13.5 6 3.7 15.5 9.9 21 13.8 5.5 3.9 14.5 10.7 20 15.1 5.5 4.4 15.8 13.7 22.9 20.6 7.1 6.9 17.1 17.4 22.3 23.5 5.3 6.1 12.6 15.1 16.3 20 3.7 4.9 10.4 14.6 14.8 21.5 4.4 6.9 11.6 19.5 16.1 28 4.4 8.5 10.1 20.4 12.6 26.5 2.5 6.1 6.7 17.1 9.2 24.5 2.4 7.4 6.2 20.7 8.4 29.5 2.1 8.8 5.1 23.9 6.6 33.5 2.6 16.4 2.7 19.6 2.7 51.5 0.1 27.4-0.3 36.3-1.7 46-1 6.6-2.7 16.7-3.8 22.5-1.1 5.8-3.3 15.7-4.9 22-1.6 6.3-4.4 16.2-6.3 22-1.9 5.8-5.4 15.5-7.8 21.5-2.3 6-8.3 19.1-13.3 29-5 9.9-12.9 23.9-17.5 31-4.6 7.1-11.4 17-15.1 22-3.7 5-11 14-16.3 20-5.2 6-15.2 16.6-22.3 23.5-7.1 6.9-17.4 16.2-22.9 20.6-5.5 4.4-14.5 11.2-20 15.1-5.5 3.9-15 10.1-21 13.8-6 3.7-18 10.2-26.5 14.4-8.5 4.2-20.9 9.8-27.5 12.4-6.6 2.5-18.5 6.7-26.5 9.1-8 2.5-19.5 5.6-25.5 7-6 1.3-16.9 3.4-24 4.5-7.1 1.1-17.7 2.5-23.5 3.1-5.8 0.5-20.6 1-33 1-12.4 0-27.2-0.5-33-1-5.8-0.6-17.3-2.2-25.5-3.5-8.3-1.3-19.7-3.5-25.5-4.9-5.8-1.4-16.8-4.5-24.5-6.9-7.7-2.4-19.4-6.5-26-9.2-6.6-2.6-18.5-8-26.5-12.1-8-4-19.4-10.3-25.5-13.9-6.1-3.7-15.5-9.9-21-13.8-5.5-3.9-14.5-10.7-20-15.1-5.5-4.4-15.8-13.7-22.9-20.6-7.1-6.9-17.1-17.5-22.3-23.5-5.2-6-12.6-15-16.3-20-3.8-5-10.7-15.1-15.5-22.5-4.7-7.4-13-22.5-18.5-33.5-5.4-11-12-25.6-14.5-32.5-2.5-6.9-6.1-17.7-8-24-1.8-6.3-4.7-17.6-6.3-25-1.7-7.4-3.8-18.2-4.6-24-0.9-5.8-2.1-16.1-2.7-23-0.7-7.8-0.9-22.6-0.6-39.5 0.3-15.9 1.2-31.5 2.1-38 0.9-6.1 2.5-15.7 3.7-21.5 1.1-5.8 3.4-15.9 5-22.5 1.7-6.6 5.1-18.1 7.6-25.5 2.5-7.4 6.8-18.7 9.5-25 2.7-6.3 8.2-17.8 12.2-25.5 4-7.7 10.8-19.6 15.1-26.5 4.4-6.9 11.2-16.8 15.1-22 4-5.2 11.4-14.4 16.7-20.5 5.2-6.1 15.2-16.6 22.3-23.5 7.1-6.9 17.4-16.2 22.9-20.6 5.5-4.4 14.5-11.2 20-15.1 5.5-3.9 14.9-10.1 21-13.8 6.1-3.6 16.6-9.5 23.5-13 6.9-3.4 17.4-8.4 23.5-11 6.1-2.6 15.5-6.2 21-8 5.5-1.8 13.8-4.5 18.5-5.9 4.7-1.3 14.4-3.8 21.5-5.4 7.1-1.7 20.2-3.9 29-5.1 8.8-1.2 17.6-2.3 19.5-2.5 1.9-0.2 17.2-0.3 34-0.1z"/></svg>