<svg width="214" height="214" viewBox="0 0 214 214" fill="none" xmlns="http://www.w3.org/2000/svg">
<path fill-rule="evenodd" clip-rule="evenodd" d="M107 197.345L73.9353 214L56.4956 180.091L20.4353 173.13L25.2821 134.918L0 107L25.2821 79.0818L20.4353 40.8702L56.4956 33.9094L73.9353 0L107 16.6548L140.065 0L157.504 33.9094L193.565 40.8702L188.718 79.0818L214 107L188.718 134.918L193.565 173.13L157.504 180.091L140.065 214L107 197.345Z" fill="#72EE95"/>
<rect x="125.482" y="67.3537" width="13" height="100" rx="2" transform="rotate(35.83 125.482 67.3537)" fill="white"/>
<rect x="103.817" y="52.9446" width="65" height="39" transform="rotate(35.83 103.817 52.9446)" fill="white"/>
<rect x="100.709" y="47" width="9" height="45" rx="2" transform="rotate(35.83 100.709 47)" fill="white"/>
<rect x="155.841" y="86.806" width="9" height="45" rx="2" transform="rotate(35.83 155.841 86.806)" fill="white"/>
</svg>
