<svg width="214" height="214" viewBox="0 0 214 214" fill="none" xmlns="http://www.w3.org/2000/svg">
<path fill-rule="evenodd" clip-rule="evenodd" d="M107 197.345L73.9353 214L56.4956 180.091L20.4353 173.13L25.2821 134.918L0 107L25.2821 79.0818L20.4353 40.8702L56.4956 33.9094L73.9353 0L107 16.6548L140.065 0L157.504 33.9094L193.565 40.8702L188.718 79.0818L214 107L188.718 134.918L193.565 173.13L157.504 180.091L140.065 214L107 197.345Z" fill="#8BD5FF"/>
<rect x="57" y="116.318" width="20" height="54" rx="10" transform="rotate(-49.9852 57 116.318)" fill="white"/>
<rect x="57" y="116.318" width="20" height="54" rx="10" transform="rotate(-49.9852 57 116.318)" fill="white"/>
<rect x="57" y="116.318" width="20" height="54" rx="10" transform="rotate(-49.9852 57 116.318)" fill="white"/>
<rect x="141.685" y="63" width="20.7515" height="95.3273" rx="10" transform="rotate(38.1842 141.685 63)" fill="white"/>
<rect x="141.685" y="63" width="20.7515" height="95.3273" rx="10" transform="rotate(38.1842 141.685 63)" fill="white"/>
<rect x="141.685" y="63" width="20.7515" height="95.3273" rx="10" transform="rotate(38.1842 141.685 63)" fill="white"/>
</svg>
